<?xml version="1.0" encoding="UTF-8" standalone="no"?>
<!-- Generator: Adobe Illustrator 14.0.0, SVG Export Plug-In . SVG Version: 6.00 Build 43363)  -->

<svg
   xmlns:dc="http://purl.org/dc/elements/1.1/"
   xmlns:cc="http://creativecommons.org/ns#"
   xmlns:rdf="http://www.w3.org/1999/02/22-rdf-syntax-ns#"
   xmlns:svg="http://www.w3.org/2000/svg"
   xmlns="http://www.w3.org/2000/svg"
   xmlns:sodipodi="http://sodipodi.sourceforge.net/DTD/sodipodi-0.dtd"
   xmlns:inkscape="http://www.inkscape.org/namespaces/inkscape"
   version="1.1"
   id="Layer_1"
   x="0px"
   y="0px"
   width="38"
   height="38"
   viewBox="0 0 38 38"
   xml:space="preserve"
   inkscape:version="0.48.1 "
   sodipodi:docname="clock.svg"><metadata
   id="metadata3196"><rdf:RDF><cc:Work
       rdf:about=""><dc:format>image/svg+xml</dc:format><dc:type
         rdf:resource="http://purl.org/dc/dcmitype/StillImage" /><dc:title></dc:title></cc:Work></rdf:RDF></metadata><defs
   id="defs3194"><filter
     id="filter4653"
     inkscape:label="Drop shadow"
     width="1.5"
     height="1.5"
     x="-0.25"
     y="-0.25"
     color-interpolation-filters="sRGB"><feGaussianBlur
       id="feGaussianBlur4655"
       in="SourceAlpha"
       stdDeviation="2"
       result="blur" /><feColorMatrix
       id="feColorMatrix4657"
       result="bluralpha"
       type="matrix"
       values="1 0 0 0 0 0 1 0 0 0 0 0 1 0 0 0 0 0 0.5 0 " /><feOffset
       id="feOffset4659"
       in="bluralpha"
       dx="4"
       dy="4"
       result="offsetBlur" /><feMerge
       id="feMerge4661"><feMergeNode
         id="feMergeNode4663"
         in="offsetBlur" /><feMergeNode
         id="feMergeNode4665"
         in="SourceGraphic" /></feMerge></filter></defs><sodipodi:namedview
   pagecolor="#ffffff"
   bordercolor="#666666"
   borderopacity="1"
   objecttolerance="10"
   gridtolerance="10"
   guidetolerance="10"
   inkscape:pageopacity="0"
   inkscape:pageshadow="2"
   inkscape:window-width="699"
   inkscape:window-height="586"
   id="namedview3192"
   showgrid="false"
   inkscape:zoom="3"
   inkscape:cx="17.818475"
   inkscape:cy="14.346253"
   inkscape:window-x="45"
   inkscape:window-y="5"
   inkscape:window-maximized="0"
   inkscape:current-layer="Layer_1" />
<g
   id="g3186"
   style="fill:#f00000;fill-opacity:1;filter:url(#filter4653)"
   inkscape:export-xdpi="180"
   inkscape:export-ydpi="180"
   inkscape:export-filename="E:\artwork\icons\logo\icon_48x48.png"
   transform="translate(0.3333333,0.33333327)">
	<path
   style="fill:#f00000;fill-opacity:1"
   d="M 16,4 C 22.617,4 28,9.383 28,16 28,22.617 22.617,28 16,28 9.383,28 4,22.617 4,16 4,9.383 9.383,4 16,4 M 16,0 C 7.164,0 0,7.164 0,16 0,24.836 7.164,32 16,32 24.836,32 32,24.836 32,16 32,7.164 24.836,0 16,0 l 0,0 z"
   id="path3188"
   inkscape:connector-curvature="0" />
	<path
   style="fill:#f00000;fill-opacity:1"
   d="M 21.422,18.578 18,15.152 V 8 h -4.023 v 7.992 c 0,0.602 0.277,1.122 0.695,1.493 l 3.922,3.922 2.828,-2.829 z"
   id="path3190"
   inkscape:connector-curvature="0" />
</g>
</svg>