<?xml version="1.0" encoding="UTF-8" standalone="no"?>
<!-- Generator: Adobe Illustrator 14.0.0, SVG Export Plug-In . SVG Version: 6.00 Build 43363)  -->

<svg
   xmlns:dc="http://purl.org/dc/elements/1.1/"
   xmlns:cc="http://creativecommons.org/ns#"
   xmlns:rdf="http://www.w3.org/1999/02/22-rdf-syntax-ns#"
   xmlns:svg="http://www.w3.org/2000/svg"
   xmlns="http://www.w3.org/2000/svg"
   xmlns:sodipodi="http://sodipodi.sourceforge.net/DTD/sodipodi-0.dtd"
   xmlns:inkscape="http://www.inkscape.org/namespaces/inkscape"
   version="1.1"
   id="Layer_1"
   x="0px"
   y="0px"
   width="32px"
   height="32px"
   viewBox="0 0 32 32"
   style="enable-background:new 0 0 32 32;"
   xml:space="preserve"
   inkscape:version="0.48.1 "
   sodipodi:docname="clock.svg"><metadata
   id="metadata3196"><rdf:RDF><cc:Work
       rdf:about=""><dc:format>image/svg+xml</dc:format><dc:type
         rdf:resource="http://purl.org/dc/dcmitype/StillImage" /><dc:title></dc:title></cc:Work></rdf:RDF></metadata><defs
   id="defs3194" /><sodipodi:namedview
   pagecolor="#ffffff"
   bordercolor="#666666"
   borderopacity="1"
   objecttolerance="10"
   gridtolerance="10"
   guidetolerance="10"
   inkscape:pageopacity="0"
   inkscape:pageshadow="2"
   inkscape:window-width="694"
   inkscape:window-height="480"
   id="namedview3192"
   showgrid="false"
   inkscape:zoom="8.0625"
   inkscape:cx="21.77846"
   inkscape:cy="27.24454"
   inkscape:window-x="0"
   inkscape:window-y="0"
   inkscape:window-maximized="0"
   inkscape:current-layer="Layer_1" />
<g
   id="g3186"
   style="fill:#f00000;fill-opacity:1"
   inkscape:export-xdpi="154.69"
   inkscape:export-ydpi="154.69"
   inkscape:export-filename="E:\artwork\icons\logo\icon_google_code.png">
	<path
   style="fill:#f00000;fill-opacity:1"
   d="M16,4c6.617,0,12,5.383,12,12s-5.383,12-12,12S4,22.617,4,16S9.383,4,16,4 M16,0   C7.164,0,0,7.164,0,16s7.164,16,16,16s16-7.164,16-16S24.836,0,16,0L16,0z"
   id="path3188" />
	<path
   style="fill:#f00000;fill-opacity:1"
   d="M21.422,18.578L18,15.152V8h-4.023v7.992c0,0.602,0.277,1.122,0.695,1.493l3.922,3.922   L21.422,18.578z"
   id="path3190" />
</g>
</svg>